<svg xmlns="http://www.w3.org/2000/svg" width="865.4625244140625" height="589.98486328125" viewBox="-361.1742858886719 -176.28028869628906 865.4625244140625 589.98486328125"><title>Neo4j Graph Visualization</title><desc>Created using Neo4j (http://www.neo4j.com/)</desc><g class="layer relationships"><g class="relationship" transform="translate(115.80945391975794 156.00564835319125) rotate(184.56917650928736)"><path class="outline" fill="#A5ABB6" stroke="none" d="M 10.835724717245366 38.50762352901147 L 21.188486521346196 77.14465658057419 A 21.935935394489817 21.935935394489817 0 1 1 -21.188486521346196 77.14465658057419 L -12.647458032963009 45.26910431303495 L -8.783754727806736 46.30438049344503 L -10.352761804100831 38.63703305156273 L -15.545235511830214 44.49264717772739 L -11.68153220667394 45.52792335813747 L -20.22256069505713 77.40347562567672 A 20.935935394489817 20.935935394489817 0 1 0 20.22256069505713 77.40347562567672 L 9.869798890956297 38.76644257411399 Z"/><text text-anchor="middle" pointer-events="none" font-size="8px" fill="#000000" x="0" y="113.75802982729645" transform="rotate(180 0 110.75802982729645)" font-family="sans-serif">RELATED_TO</text></g><g class="relationship" transform="translate(115.80945391975794 156.00564835319125) rotate(237.65497641150824)"><path class="outline" fill="#A5ABB6" stroke="none" d="M 40 0.5 L 68.63287395541737 0.5 L 68.63287395541737 -0.5 L 40 -0.5 Z M 150.80474895541738 0.5 L 179.43762291083473 0.5 L 179.43762291083473 3.5 L 186.43762291083473 0 L 179.43762291083473 -3.5 L 179.43762291083473 -0.5 L 150.80474895541738 -0.5 Z"/><text text-anchor="middle" pointer-events="none" font-size="8px" fill="#000000" x="109.71881145541737" y="3" transform="rotate(180 109.71881145541737 0)" font-family="sans-serif">INVOLVED_TARGET</text></g><g class="relationship" transform="translate(115.80945391975794 156.00564835319125) rotate(311.4833766070665)"><path class="outline" fill="#A5ABB6" stroke="none" d="M 40 0.5 L 116.37651104715519 0.5 L 116.37651104715519 -0.5 L 40 -0.5 Z M 188.6186985471552 0.5 L 264.9952095943104 0.5 L 264.9952095943104 3.5 L 271.9952095943104 0 L 264.9952095943104 -3.5 L 264.9952095943104 -0.5 L 188.6186985471552 -0.5 Z"/><text text-anchor="middle" pointer-events="none" font-size="8px" fill="#000000" x="152.4976047971552" y="3" font-family="sans-serif">HAS_GEO_CODE</text></g><g class="relationship" transform="translate(115.80945391975794 156.00564835319125) rotate(333.4909892753217)"><path class="outline" fill="#A5ABB6" stroke="none" d="M 40 0.5 L 133.64799168859014 0.5 L 133.64799168859014 -0.5 L 40 -0.5 Z M 219.52299168859014 0.5 L 313.1709833771803 0.5 L 313.1709833771803 3.5 L 320.1709833771803 0 L 313.1709833771803 -3.5 L 313.1709833771803 -0.5 L 219.52299168859014 -0.5 Z"/><text text-anchor="middle" pointer-events="none" font-size="8px" fill="#000000" x="176.58549168859014" y="3" font-family="sans-serif">INVOLVED_WEAPON</text></g><g class="relationship" transform="translate(467.7882248457456 147.5963191725599) rotate(538.6313736326465)"><path class="outline" fill="#A5ABB6" stroke="none" d="M 32.5 0.5 L 126.88921571391248 0.5 L 126.88921571391248 -0.5 L 32.5 -0.5 Z M 210.68999696391248 0.5 L 305.07921267782496 0.5 L 305.07921267782496 3.5 L 312.07921267782496 0 L 305.07921267782496 -3.5 L 305.07921267782496 -0.5 L 210.68999696391248 -0.5 Z"/><text text-anchor="middle" pointer-events="none" font-size="8px" fill="#000000" x="168.78960633891248" y="3" transform="rotate(180 168.78960633891248 0)" font-family="sans-serif">RESPONSIBLE_FOR</text></g><g class="relationship" transform="translate(2.686858207236291 -22.625666710673517) rotate(536.3016766619173)"><path class="outline" fill="#A5ABB6" stroke="none" d="M 25 0.5 L 64.00570058983574 0.5 L 64.00570058983574 -0.5 L 25 -0.5 Z M 136.99007558983573 0.5 L 175.99577617967148 0.5 L 175.99577617967148 3.5 L 182.99577617967148 0 L 175.99577617967148 -3.5 L 175.99577617967148 -0.5 L 136.99007558983573 -0.5 Z"/><text text-anchor="middle" pointer-events="none" font-size="8px" fill="#000000" x="100.49788808983574" y="3" transform="rotate(180 100.49788808983574 0)" font-family="sans-serif">IS_NATIONAL_OF</text></g><g class="relationship" transform="translate(115.80945391975794 156.00564835319125) rotate(418.1983722354208)"><path class="outline" fill="#A5ABB6" stroke="none" d="M 40 0.5 L 80.3184923333008 0.5 L 80.3184923333008 -0.5 L 40 -0.5 Z M 139.2247423333008 0.5 L 179.5432346666016 0.5 L 179.5432346666016 3.5 L 186.5432346666016 0 L 179.5432346666016 -3.5 L 179.5432346666016 -0.5 L 139.2247423333008 -0.5 Z"/><text text-anchor="middle" pointer-events="none" font-size="8px" fill="#000000" x="109.7716173333008" y="3" font-family="sans-serif">CLAIMED_VIA</text></g><g class="relationship" transform="translate(115.80945391975794 156.00564835319125) rotate(500.69250823574396)"><path class="outline" fill="#A5ABB6" stroke="none" d="M 40 0.5 L 88.64226074387311 0.5 L 88.64226074387311 -0.5 L 40 -0.5 Z M 153.31413574387312 0.5 L 201.95639648774622 0.5 L 201.95639648774622 3.5 L 208.95639648774622 0 L 201.95639648774622 -3.5 L 201.95639648774622 -0.5 L 153.31413574387312 -0.5 Z"/><text text-anchor="middle" pointer-events="none" font-size="8px" fill="#000000" x="120.97819824387311" y="3" transform="rotate(180 120.97819824387311 0)" font-family="sans-serif">OCCURRED_IN</text></g><g class="relationship" transform="translate(-163.2423639665592 142.89081543883728) rotate(254.69175626445826)"><path class="outline" fill="#A5ABB6" stroke="none" d="M 32.5 0.5 L 36.08393963269198 0.5 L 36.08393963269198 -0.5 L 32.5 -0.5 Z M 122.11128338269198 0.5 L 125.69522301538396 0.5 L 125.69522301538396 3.5 L 132.69522301538396 0 L 125.69522301538396 -3.5 L 125.69522301538396 -0.5 L 122.11128338269198 -0.5 Z"/><text text-anchor="middle" pointer-events="none" font-size="8px" fill="#000000" x="79.09761150769198" y="3" transform="rotate(180 79.09761150769198 0)" font-family="sans-serif">PART_OF_COUNTRY</text></g><g class="relationship" transform="translate(-204.87576807294903 -9.209293122549774) rotate(500.54398469840595)"><path class="outline" fill="#A5ABB6" stroke="none" d="M 25 0.5 L 39.84925888306411 0.5 L 39.84925888306411 -0.5 L 25 -0.5 Z M 118.02113388306411 0.5 L 132.87039276612822 0.5 L 132.87039276612822 3.5 L 139.87039276612822 0 L 132.87039276612822 -3.5 L 132.87039276612822 -0.5 L 118.02113388306411 -0.5 Z"/><text text-anchor="middle" pointer-events="none" font-size="8px" fill="#000000" x="78.93519638306411" y="3" transform="rotate(180 78.93519638306411 0)" font-family="sans-serif">PART_OF_REGION</text></g><g class="relationship" transform="translate(2.686858207236291 -22.625666710673517) rotate(324.4667195057973)"><path class="outline" fill="#A5ABB6" stroke="none" d="M 25 0.5 L 48.15823147309395 0.5 L 48.15823147309395 -0.5 L 25 -0.5 Z M 138.92385647309396 0.5 L 162.0820879461879 0.5 L 162.0820879461879 3.5 L 169.0820879461879 0 L 162.0820879461879 -3.5 L 162.0820879461879 -0.5 L 138.92385647309396 -0.5 Z"/><text text-anchor="middle" pointer-events="none" font-size="8px" fill="#000000" x="93.54104397309395" y="3" font-family="sans-serif">IS_OF_TARGET_TYPE</text></g><g class="relationship" transform="translate(115.80945391975794 156.00564835319125) rotate(466.9725052882565)"><path class="outline" fill="#A5ABB6" stroke="none" d="M 40 0.5 L 79.13488255198324 0.5 L 79.13488255198324 -0.5 L 40 -0.5 Z M 167.97863255198325 0.5 L 207.11351510396648 0.5 L 207.11351510396648 3.5 L 214.11351510396648 0 L 207.11351510396648 -3.5 L 207.11351510396648 -0.5 L 167.97863255198325 -0.5 Z"/><text text-anchor="middle" pointer-events="none" font-size="8px" fill="#000000" x="123.55675755198324" y="3" transform="rotate(180 123.55675755198324 0)" font-family="sans-serif">INVOLVED_HOSTAGE</text></g><g class="relationship" transform="translate(115.80945391975794 156.00564835319125) rotate(182.69079794794482)"><path class="outline" fill="#A5ABB6" stroke="none" d="M 40 0.5 L 107.8830411547838 0.5 L 107.8830411547838 -0.5 L 40 -0.5 Z M 171.9767911547838 0.5 L 239.8598323095676 0.5 L 239.8598323095676 3.5 L 246.8598323095676 0 L 239.8598323095676 -3.5 L 239.8598323095676 -0.5 L 171.9767911547838 -0.5 Z"/><text text-anchor="middle" pointer-events="none" font-size="8px" fill="#000000" x="139.9299161547838" y="3" transform="rotate(180 139.9299161547838 0)" font-family="sans-serif">HAPPENED_AT</text></g><g class="relationship" transform="translate(115.80945391975794 156.00564835319125) rotate(382.0337179791148)"><path class="outline" fill="#A5ABB6" stroke="none" d="M 40 0.5 L 124.44097030312471 0.5 L 124.44097030312471 -0.5 L 40 -0.5 Z M 213.73003280312471 0.5 L 298.17100310624943 0.5 L 298.17100310624943 3.5 L 305.17100310624943 0 L 298.17100310624943 -3.5 L 298.17100310624943 -0.5 L 213.73003280312471 -0.5 Z"/><text text-anchor="middle" pointer-events="none" font-size="8px" fill="#000000" x="169.08550155312471" y="3" font-family="sans-serif">IS_OF_ATTACK_TYPE</text></g></g><g class="layer nodes"><g class="node" transform="translate(46.00916633568859,384.704561683701)"><circle class="outline" cx="0" cy="0" r="25" fill="#ECB5C9" stroke="#da7298" stroke-width="2px"/><text text-anchor="middle" pointer-events="none" font-family="sans-serif" dy="1.5625" font-size="25" fill="#2A2C34"/><text text-anchor="middle" pointer-events="none" x="0" y="5" font-size="10px" fill="#2A2C34" font-family="sans-serif"> Hostage</text></g><g class="node" transform="translate(428.81806165028263,282.68365680524767)"><circle class="outline" cx="0" cy="0" r="32.5" fill="#8DCC93" stroke="#5db665" stroke-width="2px"/><text text-anchor="middle" pointer-events="none" font-family="sans-serif" dy="2.03125" font-size="32.5" fill="#2A2C34"/><text text-anchor="middle" pointer-events="none" x="0" y="5" font-size="10px" fill="#2A2C34" font-family="sans-serif"> AttackType</text></g><g class="node" transform="translate(467.7882248457456,147.5963191725599)"><circle class="outline" cx="0" cy="0" r="32.5" fill="#F16667" stroke="#eb2728" stroke-width="2px"/><text text-anchor="middle" pointer-events="none" font-family="sans-serif" dy="2.03125" font-size="32.5" fill="#FFFFFF"/><text text-anchor="middle" pointer-events="none" x="0" y="5" font-size="10px" fill="#FFFFFF" font-family="sans-serif"> Perpetrator</text></g><g class="node" transform="translate(424.69060237636995,1.942531762314438)"><circle class="outline" cx="0" cy="0" r="25" fill="#604A0E" stroke="#423204" stroke-width="2px"/><text text-anchor="middle" pointer-events="none" font-family="sans-serif" dy="1.5625" font-size="25" fill="#FFFFFF"/><text text-anchor="middle" pointer-events="none" x="0" y="5" font-size="10px" fill="#FFFFFF" font-family="sans-serif"> Weapon</text></g><g class="node" transform="translate(312.5398896527268,-66.48770026263719)"><circle class="outline" cx="0" cy="0" r="25" fill="#4C8EDA" stroke="#2870c2" stroke-width="2px"/><text text-anchor="middle" pointer-events="none" font-family="sans-serif" dy="1.5625" font-size="25" fill="#FFFFFF"/><text text-anchor="middle" pointer-events="none" x="0" y="5" font-size="10px" fill="#FFFFFF" font-family="sans-serif"> GeoCode</text></g><g class="node" transform="translate(2.686858207236291,-22.625666710673517)"><circle class="outline" cx="0" cy="0" r="25" fill="#57C7E3" stroke="#23b3d7" stroke-width="2px"/><text text-anchor="middle" pointer-events="none" font-family="sans-serif" dy="1.5625" font-size="25" fill="#2A2C34"/><text text-anchor="middle" pointer-events="none" x="0" y="5" font-size="10px" fill="#2A2C34" font-family="sans-serif"> TargetInfo</text></g><g class="node" transform="translate(-65.21603558193239,304.2128263446938)"><circle class="outline" cx="0" cy="0" r="25" fill="#D9C8AE" stroke="#c0a378" stroke-width="2px"/><text text-anchor="middle" pointer-events="none" font-family="sans-serif" dy="1.5625" font-size="25" fill="#2A2C34"/><text text-anchor="middle" pointer-events="none" x="0" y="5" font-size="10px" fill="#2A2C34" font-family="sans-serif"> Year</text></g><g class="node" transform="translate(166.72994215145036,-139.78028587191773)"><circle class="outline" cx="0" cy="0" r="32.5" fill="#F79767" stroke="#f36924" stroke-width="2px"/><text text-anchor="middle" pointer-events="none" font-family="sans-serif" dy="2.03125" font-size="32.5" fill="#FFFFFF"/><text text-anchor="middle" pointer-events="none" x="0" y="5" font-size="10px" fill="#FFFFFF" font-family="sans-serif"> TargetType</text></g><g class="node" transform="translate(-204.87576807294903,-9.209293122549774)"><circle class="outline" cx="0" cy="0" r="25" fill="#569480" stroke="#447666" stroke-width="2px"/><text text-anchor="middle" pointer-events="none" font-family="sans-serif" dy="1.5625" font-size="25" fill="#FFFFFF"/><text text-anchor="middle" pointer-events="none" x="0" y="5" font-size="10px" fill="#FFFFFF" font-family="sans-serif"> Country</text></g><g class="node" transform="translate(-332.1742854389553,95.56347952031763)"><circle class="outline" cx="0" cy="0" r="25" fill="#C990C0" stroke="#b261a5" stroke-width="2px"/><text text-anchor="middle" pointer-events="none" font-family="sans-serif" dy="1.5625" font-size="25" fill="#FFFFFF"/><text text-anchor="middle" pointer-events="none" x="0" y="5" font-size="10px" fill="#FFFFFF" font-family="sans-serif"> Region</text></g><g class="node" transform="translate(115.80945391975794,156.00564835319125)"><circle class="outline" cx="0" cy="0" r="40" fill="#FFC454" stroke="#d7a013" stroke-width="2px"/><text text-anchor="middle" pointer-events="none" font-family="sans-serif" dy="2.5" font-size="40" fill="#2A2C34"/><text text-anchor="middle" pointer-events="none" x="0" y="5" font-size="10px" fill="#2A2C34" font-family="sans-serif"> Incident</text></g><g class="node" transform="translate(227.28849516061865,335.7915307167054)"><circle class="outline" cx="0" cy="0" r="25" fill="#C990C0" stroke="#b261a5" stroke-width="2px"/><text text-anchor="middle" pointer-events="none" font-family="sans-serif" dy="1.5625" font-size="25" fill="#FFFFFF"/><text text-anchor="middle" pointer-events="none" x="0" y="5" font-size="10px" fill="#FFFFFF" font-family="sans-serif"> Claim</text></g><g class="node" transform="translate(-163.2423639665592,142.89081543883728)"><circle class="outline" cx="0" cy="0" r="32.5" fill="#DA7194" stroke="#cc3c6c" stroke-width="2px"/><text text-anchor="middle" pointer-events="none" font-family="sans-serif" dy="2.03125" font-size="32.5" fill="#FFFFFF"/><text text-anchor="middle" pointer-events="none" x="0" y="5" font-size="10px" fill="#FFFFFF" font-family="sans-serif"> Location</text></g></g></svg>